<svg version="1.1" id="Layer_1" xmlns="http://www.w3.org/2000/svg" xmlns:xlink="http://www.w3.org/1999/xlink" x="0px" y="0px"
	 width="100%" viewBox="0 0 812 200" enable-background="new 0 0 812 200" xml:space="preserve">
<path fill="#010101" opacity="1.000000" stroke="none" 
	d="
M588.000000,201.000000 
	C392.000031,201.000000 196.500046,201.000000 1.000052,201.000000 
	C1.000035,134.333359 1.000035,67.666733 1.000018,1.000070 
	C271.666595,1.000047 542.333191,1.000047 812.999878,1.000023 
	C812.999878,67.666595 812.999878,134.333191 812.999939,200.999893 
	C738.166687,201.000000 663.333313,201.000000 588.000000,201.000000 
M444.358459,125.848984 
	C444.595947,126.990295 444.806824,128.137909 445.074951,129.271973 
	C449.183777,146.649200 463.445312,158.573669 481.026825,159.249588 
	C491.273102,159.643494 500.190125,156.312729 508.132416,148.239578 
	C508.132416,151.756500 508.132416,154.139633 508.132416,156.695297 
	C517.067078,156.695297 525.621643,156.695297 534.188171,156.695297 
	C534.188171,113.343102 534.188171,70.308853 534.188171,27.479530 
	C525.217346,27.479530 516.647888,27.479530 507.672119,27.479530 
	C507.672119,47.115231 507.672119,66.346634 507.672119,86.170273 
	C505.913544,84.967331 504.735077,84.125259 503.521820,83.336708 
	C486.775421,72.452652 465.303833,75.983887 452.840424,91.561798 
	C444.940430,101.435966 443.058716,112.793068 444.358459,125.848984 
M125.500214,32.319675 
	C116.048439,32.319675 106.596664,32.319675 96.893921,32.319675 
	C96.893921,40.878048 96.893921,48.940762 96.893921,57.593979 
	C106.765717,57.593979 116.310341,57.593979 126.211105,57.593979 
	C126.211105,90.943275 126.211105,123.702209 126.211105,156.730713 
	C135.813004,156.730713 145.040588,156.730713 154.775528,156.730713 
	C154.775528,123.582100 154.775528,90.684875 154.775528,57.266342 
	C164.838074,57.266342 174.401901,57.266342 184.049988,57.266342 
	C184.049988,48.784069 184.049988,40.829830 184.049988,32.316536 
	C164.740082,32.316536 145.620148,32.316536 125.500214,32.319675 
M406.232422,137.499420 
	C406.232422,143.911285 406.232422,150.323135 406.232422,156.742188 
	C415.647125,156.742188 424.250061,156.742188 432.768616,156.742188 
	C432.768616,137.718704 433.177612,118.939964 432.566132,100.194527 
	C432.323547,92.758621 427.583984,86.935646 420.950531,83.116913 
	C408.648987,76.035225 391.237823,73.495735 378.079407,86.557945 
	C377.925476,86.710739 377.487122,86.576973 377.055817,86.576973 
	C376.931366,84.360840 376.804779,82.106911 376.678009,79.849411 
	C367.607361,79.849411 358.899719,79.849411 350.216461,79.849411 
	C350.216461,105.652168 350.216461,131.071396 350.216461,156.608582 
	C359.186829,156.608582 367.883514,156.608582 376.758942,156.608582 
	C376.758942,142.242645 376.653442,128.268951 376.797150,114.297813 
	C376.888367,105.428673 384.692444,97.901222 393.136108,98.153336 
	C400.875610,98.384438 406.215881,104.782898 406.268677,114.013397 
	C406.311554,121.508530 406.250946,129.004257 406.232422,137.499420 
M276.697815,154.924469 
	C298.317749,164.816864 324.623413,157.918472 336.107605,139.044464 
	C332.876526,137.359253 329.684662,135.645645 326.448456,134.020432 
	C323.243958,132.411148 319.994629,130.891052 316.912842,129.403214 
	C307.641785,138.160553 298.178162,140.291534 289.523926,135.795746 
	C283.610779,132.723938 281.218140,128.298080 282.286133,121.828644 
	C300.607391,121.828644 319.005188,121.828644 337.342590,121.828644 
	C339.459595,102.929993 330.865845,87.469803 314.562134,80.639877 
	C305.202301,76.718872 295.414551,76.318993 285.645233,78.478889 
	C269.411591,82.068001 256.054352,96.377129 253.922379,111.918449 
	C251.424026,130.130386 259.111572,144.972305 276.697815,154.924469 
M665.407166,94.261467 
	C665.407166,96.053978 665.407166,97.846489 665.407166,99.780975 
	C669.425354,99.986122 672.823364,100.159599 676.291687,100.336670 
	C676.291687,105.805321 676.186218,110.794876 676.316833,115.778236 
	C676.504211,122.923332 676.360718,130.129166 677.276367,137.190033 
	C678.441162,146.171982 682.345032,153.869492 691.537659,157.237305 
	C701.054138,160.723740 710.554077,159.677383 719.748657,155.833313 
	C720.826599,155.382645 722.169312,153.259445 721.915527,152.302383 
	C720.227295,145.936050 718.137817,139.676132 716.087524,133.088470 
	C715.057983,133.480133 714.480042,133.717163 713.890808,133.921570 
	C706.864441,136.359085 704.063477,134.747894 703.812683,127.390839 
	C703.507507,118.439308 703.740173,109.469460 703.740173,99.976463 
	C708.981201,99.976463 714.229370,99.976463 719.466919,99.976463 
	C719.466919,92.913918 719.466919,86.387909 719.466919,79.365677 
	C714.033447,79.365677 708.964111,79.365677 703.454102,79.365677 
	C703.454102,69.616341 703.454102,60.361816 703.454102,50.821140 
	C694.271545,50.821140 685.554871,50.821140 676.284607,50.821140 
	C676.284607,60.526661 676.284607,69.935341 676.284607,79.655380 
	C672.470703,79.655380 669.208374,79.655380 665.407166,79.655380 
	C665.407166,84.415962 665.407166,88.864647 665.407166,94.261467 
M653.327698,80.011246 
	C647.093506,79.112076 640.861450,77.472359 634.624695,77.454559 
	C616.923828,77.404022 599.906311,90.070671 594.798279,106.348602 
	C589.413574,123.508072 595.550354,140.624619 610.960693,151.428329 
	C625.220093,161.425125 648.690552,161.862366 661.543701,152.222214 
	C661.179932,151.226776 660.880249,150.121201 660.388428,149.108932 
	C657.933350,144.054993 655.427795,139.025543 652.955688,134.019318 
	C639.777771,139.306732 631.528625,137.958450 625.207764,129.681778 
	C620.517883,123.540741 620.145996,113.356880 625.062805,107.314468 
	C627.378723,104.468346 630.582703,101.811607 633.943604,100.464066 
	C640.239075,97.939896 646.635010,99.376236 652.863892,102.710670 
	C655.986572,96.530525 658.965393,90.635086 662.228210,84.177513 
	C659.379517,82.800613 656.728882,81.519447 653.327698,80.011246 
M185.029129,112.500000 
	C185.029129,127.246399 185.029129,141.992798 185.029129,156.698700 
	C194.393829,156.698700 202.978241,156.698700 211.926926,156.698700 
	C211.926926,154.762100 211.926025,153.131607 211.927078,151.501114 
	C211.934525,140.007858 211.826767,128.513016 211.983231,117.021782 
	C212.134186,105.935226 219.689819,99.332382 230.618927,100.833412 
	C234.327789,101.342804 237.907455,102.792885 242.023880,103.947052 
	C245.453552,97.019356 249.095520,89.662788 252.924698,81.928101 
	C236.943924,73.914955 223.640396,76.494186 211.861023,90.294823 
	C211.861023,86.006004 211.861023,83.022591 211.861023,79.783615 
	C202.906784,79.783615 194.159058,79.783615 185.029160,79.783615 
	C185.029160,90.554733 185.029160,101.027367 185.029129,112.500000 
M556.728577,157.012695 
	C564.336243,157.012695 571.943970,157.012695 579.580200,157.012695 
	C579.580200,130.849899 579.580200,105.319992 579.580200,79.784470 
	C570.619629,79.784470 562.020020,79.784470 553.029541,79.784470 
	C553.029541,104.716942 552.997009,129.355637 553.145569,153.993240 
	C553.151672,155.004944 554.859253,156.006409 556.728577,157.012695 
M578.111938,58.604107 
	C584.524475,50.692261 583.989258,41.071209 576.812012,35.236965 
	C569.947571,29.657001 560.381531,30.620337 554.606140,37.473125 
	C549.495239,43.537457 549.774292,52.487873 555.257568,58.366749 
	C561.240356,64.781212 569.881042,65.065491 578.111938,58.604107 
z"/>
<path fill="#FBFBFB" opacity="1.000000" stroke="none" 
	d="
M444.284790,125.408981 
	C443.058716,112.793068 444.940430,101.435966 452.840424,91.561798 
	C465.303833,75.983887 486.775421,72.452652 503.521820,83.336708 
	C504.735077,84.125259 505.913544,84.967331 507.672119,86.170273 
	C507.672119,66.346634 507.672119,47.115231 507.672119,27.479530 
	C516.647888,27.479530 525.217346,27.479530 534.188171,27.479530 
	C534.188171,70.308853 534.188171,113.343102 534.188171,156.695297 
	C525.621643,156.695297 517.067078,156.695297 508.132416,156.695297 
	C508.132416,154.139633 508.132416,151.756500 508.132416,148.239578 
	C500.190125,156.312729 491.273102,159.643494 481.026825,159.249588 
	C463.445312,158.573669 449.183777,146.649200 445.074951,129.271973 
	C444.806824,128.137909 444.595947,126.990295 444.284790,125.408981 
M501.544800,103.858910 
	C500.262665,103.095871 499.047455,102.176086 497.687500,101.595329 
	C489.082642,97.920708 479.136780,101.249779 474.785126,109.190399 
	C470.314331,117.348343 472.357422,127.855988 479.422424,133.040314 
	C486.567322,138.283295 497.876648,136.977097 504.024780,130.446747 
	C509.447296,124.687057 510.453430,111.172409 501.544800,103.858910 
z"/>
<path fill="#FAFAFA" opacity="1.000000" stroke="none" 
	d="
M126.000221,32.318108 
	C145.620148,32.316536 164.740082,32.316536 184.049988,32.316536 
	C184.049988,40.829830 184.049988,48.784069 184.049988,57.266342 
	C174.401901,57.266342 164.838074,57.266342 154.775528,57.266342 
	C154.775528,90.684875 154.775528,123.582100 154.775528,156.730713 
	C145.040588,156.730713 135.813004,156.730713 126.211105,156.730713 
	C126.211105,123.702209 126.211105,90.943275 126.211105,57.593979 
	C116.310341,57.593979 106.765717,57.593979 96.893921,57.593979 
	C96.893921,48.940762 96.893921,40.878048 96.893921,32.319675 
	C106.596664,32.319675 116.048439,32.319675 126.000221,32.318108 
z"/>
<path fill="#FBFBFB" opacity="1.000000" stroke="none" 
	d="
M406.234314,136.999573 
	C406.250946,129.004257 406.311554,121.508530 406.268677,114.013397 
	C406.215881,104.782898 400.875610,98.384438 393.136108,98.153336 
	C384.692444,97.901222 376.888367,105.428673 376.797150,114.297813 
	C376.653442,128.268951 376.758942,142.242645 376.758942,156.608582 
	C367.883514,156.608582 359.186829,156.608582 350.216461,156.608582 
	C350.216461,131.071396 350.216461,105.652168 350.216461,79.849411 
	C358.899719,79.849411 367.607361,79.849411 376.678009,79.849411 
	C376.804779,82.106911 376.931366,84.360840 377.055817,86.576973 
	C377.487122,86.576973 377.925476,86.710739 378.079407,86.557945 
	C391.237823,73.495735 408.648987,76.035225 420.950531,83.116913 
	C427.583984,86.935646 432.323547,92.758621 432.566132,100.194527 
	C433.177612,118.939964 432.768616,137.718704 432.768616,156.742188 
	C424.250061,156.742188 415.647125,156.742188 406.232422,156.742188 
	C406.232422,150.323135 406.232422,143.911285 406.234314,136.999573 
z"/>
<path fill="#FCFCFC" opacity="1.000000" stroke="none" 
	d="
M276.361816,154.758453 
	C259.111572,144.972305 251.424026,130.130386 253.922379,111.918449 
	C256.054352,96.377129 269.411591,82.068001 285.645233,78.478889 
	C295.414551,76.318993 305.202301,76.718872 314.562134,80.639877 
	C330.865845,87.469803 339.459595,102.929993 337.342590,121.828644 
	C319.005188,121.828644 300.607391,121.828644 282.286133,121.828644 
	C281.218140,128.298080 283.610779,132.723938 289.523926,135.795746 
	C298.178162,140.291534 307.641785,138.160553 316.912842,129.403214 
	C319.994629,130.891052 323.243958,132.411148 326.448456,134.020432 
	C329.684662,135.645645 332.876526,137.359253 336.107605,139.044464 
	C324.623413,157.918472 298.317749,164.816864 276.361816,154.758453 
M310.068329,102.861580 
	C306.092957,95.940636 300.263489,93.355919 292.557037,95.097275 
	C286.466431,96.473511 282.953430,100.516396 282.445618,106.763641 
	C291.954712,106.763641 301.457794,106.763641 311.384491,106.763641 
	C310.971741,105.408203 310.695007,104.499458 310.068329,102.861580 
z"/>
<path fill="#FBFBFB" opacity="1.000000" stroke="none" 
	d="
M665.407166,93.787399 
	C665.407166,88.864647 665.407166,84.415962 665.407166,79.655380 
	C669.208374,79.655380 672.470703,79.655380 676.284607,79.655380 
	C676.284607,69.935341 676.284607,60.526661 676.284607,50.821140 
	C685.554871,50.821140 694.271545,50.821140 703.454102,50.821140 
	C703.454102,60.361816 703.454102,69.616341 703.454102,79.365677 
	C708.964111,79.365677 714.033447,79.365677 719.466919,79.365677 
	C719.466919,86.387909 719.466919,92.913918 719.466919,99.976463 
	C714.229370,99.976463 708.981201,99.976463 703.740173,99.976463 
	C703.740173,109.469460 703.507507,118.439308 703.812683,127.390839 
	C704.063477,134.747894 706.864441,136.359085 713.890808,133.921570 
	C714.480042,133.717163 715.057983,133.480133 716.087524,133.088470 
	C718.137817,139.676132 720.227295,145.936050 721.915527,152.302383 
	C722.169312,153.259445 720.826599,155.382645 719.748657,155.833313 
	C710.554077,159.677383 701.054138,160.723740 691.537659,157.237305 
	C682.345032,153.869492 678.441162,146.171982 677.276367,137.190033 
	C676.360718,130.129166 676.504211,122.923332 676.316833,115.778236 
	C676.186218,110.794876 676.291687,105.805321 676.291687,100.336670 
	C672.823364,100.159599 669.425354,99.986122 665.407166,99.780975 
	C665.407166,97.846489 665.407166,96.053978 665.407166,93.787399 
z"/>
<path fill="#FBFBFB" opacity="1.000000" stroke="none" 
	d="
M653.703003,80.124763 
	C656.728882,81.519447 659.379517,82.800613 662.228210,84.177513 
	C658.965393,90.635086 655.986572,96.530525 652.863892,102.710670 
	C646.635010,99.376236 640.239075,97.939896 633.943604,100.464066 
	C630.582703,101.811607 627.378723,104.468346 625.062805,107.314468 
	C620.145996,113.356880 620.517883,123.540741 625.207764,129.681778 
	C631.528625,137.958450 639.777771,139.306732 652.955688,134.019318 
	C655.427795,139.025543 657.933350,144.054993 660.388428,149.108932 
	C660.880249,150.121201 661.179932,151.226776 661.543701,152.222214 
	C648.690552,161.862366 625.220093,161.425125 610.960693,151.428329 
	C595.550354,140.624619 589.413574,123.508072 594.798279,106.348602 
	C599.906311,90.070671 616.923828,77.404022 634.624695,77.454559 
	C640.861450,77.472359 647.093506,79.112076 653.703003,80.124763 
z"/>
<path fill="#FBFBFB" opacity="1.000000" stroke="none" 
	d="
M185.029144,112.000000 
	C185.029160,101.027367 185.029160,90.554733 185.029160,79.783615 
	C194.159058,79.783615 202.906784,79.783615 211.861023,79.783615 
	C211.861023,83.022591 211.861023,86.006004 211.861023,90.294823 
	C223.640396,76.494186 236.943924,73.914955 252.924698,81.928101 
	C249.095520,89.662788 245.453552,97.019356 242.023880,103.947052 
	C237.907455,102.792885 234.327789,101.342804 230.618927,100.833412 
	C219.689819,99.332382 212.134186,105.935226 211.983231,117.021782 
	C211.826767,128.513016 211.934525,140.007858 211.927078,151.501114 
	C211.926025,153.131607 211.926926,154.762100 211.926926,156.698700 
	C202.978241,156.698700 194.393829,156.698700 185.029129,156.698700 
	C185.029129,141.992798 185.029129,127.246399 185.029144,112.000000 
z"/>
<path fill="#FCFCFC" opacity="1.000000" stroke="none" 
	d="
M556.251343,157.012665 
	C554.859253,156.006409 553.151672,155.004944 553.145569,153.993240 
	C552.997009,129.355637 553.029541,104.716942 553.029541,79.784470 
	C562.020020,79.784470 570.619629,79.784470 579.580200,79.784470 
	C579.580200,105.319992 579.580200,130.849899 579.580200,157.012695 
	C571.943970,157.012695 564.336243,157.012695 556.251343,157.012665 
z"/>
<path fill="#FBFAFA" opacity="1.000000" stroke="none" 
	d="
M577.846130,58.852654 
	C569.881042,65.065491 561.240356,64.781212 555.257568,58.366749 
	C549.774292,52.487873 549.495239,43.537457 554.606140,37.473125 
	C560.381531,30.620337 569.947571,29.657001 576.812012,35.236965 
	C583.989258,41.071209 584.524475,50.692261 577.846130,58.852654 
z"/>
<path fill="#040404" opacity="1.000000" stroke="none" 
	d="
M501.839111,104.079132 
	C510.453430,111.172409 509.447296,124.687057 504.024780,130.446747 
	C497.876648,136.977097 486.567322,138.283295 479.422424,133.040314 
	C472.357422,127.855988 470.314331,117.348343 474.785126,109.190399 
	C479.136780,101.249779 489.082642,97.920708 497.687500,101.595329 
	C499.047455,102.176086 500.262665,103.095871 501.839111,104.079132 
z"/>
<path fill="#050505" opacity="1.000000" stroke="none" 
	d="
M310.243317,103.226151 
	C310.695007,104.499458 310.971741,105.408203 311.384491,106.763641 
	C301.457794,106.763641 291.954712,106.763641 282.445618,106.763641 
	C282.953430,100.516396 286.466431,96.473511 292.557037,95.097275 
	C300.263489,93.355919 306.092957,95.940636 310.243317,103.226151 
z"/>
</svg>